/* XPM */
static char *pngwing_com1647569505[] = {
/* columns rows colors chars-per-pixel */
"50 50 158 2 ",
"   c None",
".  c #7BCDEE",
"X  c #A69CDE",
"o  c #9DA7D8",
"O  c #9FA9D9",
"+  c #A1ABDA",
"@  c #ACACDE",
"#  c #A4B2DB",
"$  c #ABB4DE",
"%  c #ACB9DD",
"&  c #9E9BE2",
"*  c #A693E3",
"=  c #AA95E4",
"-  c #A49CE4",
";  c #AB9DE4",
":  c #B19EE5",
">  c #9BA4E3",
",  c #94ACE3",
"<  c #99ABE4",
"1  c #8BBCE5",
"2  c #93B5E4",
"3  c #9AB4E5",
"4  c #92BCE5",
"5  c #9DB8E6",
"6  c #A5A3E4",
"7  c #ACA3E4",
"8  c #A4ABE5",
"9  c #AEABE3",
"0  c #AFACE8",
"q  c #B3A4E5",
"w  c #B8A7E7",
"e  c #B3ABE4",
"r  c #B9ACE6",
"t  c #B2A6E8",
"y  c #B8A7E8",
"u  c #B3ACE8",
"i  c #BBACE9",
"p  c #A4B6E7",
"a  c #ADB3E5",
"s  c #AEB4E8",
"d  c #A4BDE8",
"f  c #ADBBE9",
"g  c #B4B5E2",
"h  c #BCB5E6",
"j  c #B5BCE2",
"k  c #BCBBE6",
"l  c #B4B2E9",
"z  c #BEB4EA",
"x  c #B3BDEA",
"c  c #BDBCEB",
"v  c #C0BCE7",
"b  c #C3B5EB",
"n  c #C4BBEB",
"m  c #CABCEE",
"M  c #D0BFEF",
"N  c #CDBFF0",
"B  c #8FC2E6",
"V  c #85C6E9",
"C  c #8EC6E8",
"Z  c #84CBEC",
"A  c #8BCCEC",
"S  c #94C2E7",
"D  c #9BC2E7",
"F  c #91C5E8",
"G  c #9FC5E8",
"H  c #94CBEB",
"J  c #9CCBEA",
"K  c #85D1EF",
"L  c #8DD1EE",
"P  c #94D3EF",
"I  c #9AD3EE",
"U  c #8CD5F0",
"Y  c #94D6F0",
"T  c #9BD6F0",
"R  c #96DBF3",
"E  c #9CD8F1",
"W  c #A4C4E9",
"Q  c #ADC5EA",
"!  c #A3CAEA",
"~  c #ADCCEC",
"^  c #B5C2E2",
"/  c #BBC3E5",
"(  c #BDCAE6",
")  c #B4C4EC",
"_  c #BCC4EC",
"`  c #B5CCEC",
"'  c #BBCBEE",
"]  c #A4D4EE",
"[  c #ABD3EE",
"{  c #B3D3EE",
"}  c #BCD4EE",
"|  c #B1D8EF",
" . c #A3D7F0",
".. c #AFD7F0",
"X. c #A3DBF3",
"o. c #ACDDF3",
"O. c #BDD3F0",
"+. c #B5DCF2",
"@. c #BBDCF1",
"#. c #A6E0F5",
"$. c #AFE3F6",
"%. c #B3E5F7",
"&. c #BAE5F6",
"*. c #C0C3E7",
"=. c #C2CCE7",
"-. c #C3C3EB",
";. c #CCC3EE",
":. c #C3CCEC",
">. c #CDCBED",
",. c #D0C3EF",
"<. c #D1CBEF",
"1. c #C4D2EB",
"2. c #CDD4EC",
"3. c #CED9EC",
"4. c #D1D4ED",
"5. c #D4DBEE",
"6. c #CDC3F0",
"7. c #C4CCF0",
"8. c #CCCBF1",
"9. c #D2C5F1",
"0. c #D5CBF2",
"q. c #D9CDF3",
"w. c #C4D4F0",
"e. c #CBD4F2",
"r. c #C3DAF1",
"t. c #CCDBF2",
"y. c #D4D4F2",
"u. c #DBD4F3",
"i. c #D4DBF3",
"p. c #DCDCF4",
"a. c #E1D6F5",
"s. c #E3DCF6",
"d. c #E8DFF7",
"f. c #E9DFF8",
"g. c #C7E2F5",
"h. c #CCE3F5",
"j. c #CFE8F7",
"k. c #C0E9F8",
"l. c #D2E1F4",
"z. c #DDE2F3",
"x. c #D5EAF7",
"c. c #DBE8F7",
"v. c #DDEBF9",
"b. c #DAF0FA",
"n. c #E3E4F5",
"m. c #E9E3F7",
"M. c #E5E8F5",
"N. c #E9EBF6",
"B. c #E5E5F8",
"V. c #EAE4F9",
"C. c #ECEAF9",
"Z. c #F0ECFA",
"A. c #EEF1F7",
"S. c #E7F1FA",
"D. c #EEF1F9",
"F. c #F2F3FA",
"G. c #F6F8FB",
"H. c #FAFBFD",
/* pixels */
"                                                                                                    ",
"                                                                                                    ",
"                                                                                                    ",
"                                        H.F.N.z.n.z.n.M.F.H.                                        ",
"                                  H.M.5.4.4.4.p.p.n.n.N.N.p.n.M.H.                                  ",
"                              A.5.2.2.4.5.p.N.N.z.a.5.z.n.N.N.F.C.M.F.                              ",
"                          H.=.=.( v k k <.a.n.s.a.a.u.u.y.h *.u.M.C.n.z.H.                          ",
"                        n.1.=.*.-.k v ;.y.q.u.a.a.N.a.d.q.u.d.N.d.C.N.N.n.M.                        ",
"                      1.4.*.-.>.u.n 0.0.q.u.V.q.m u.a.a.a.u.a.a.s.a.V.C.C.M.M.                      ",
"                    / 2.4.y.<.;.;.6.m 9.0.a.u.0.<.;.a.m a.a.a.s.s.f.f.f.V.n.n.M.                    ",
"                  ^ ^ 4.<.<.b m ,.;.N 0.q.a.0.0.s.q.u.q.a.V.m.d.f.f.f.f.C.V.N.s.n.                  ",
"                / / -.4.<.<.i b m i N u.0.q.u.u.a.V.u.u.u.a.a.m.f.f.f.f.a.Z.F.V.p.n.                ",
"              l.% k >.e r b w b b i m p.s.p.0.p.C.C.u.u.q.u.u.a.a.V.s.a.d.d.H.N.N.z.N.              ",
"              # / / q q w i i q.b 0.u.a.p.p.p.s.V.p.i.8.u.5.p.a.B.s.u.s.d.q.d.s.s.n.n.H.            ",
"            ^ j n e q q b <.w ;.0.u.p.n.B.p.z.z.B.i.t.i.i.B.n.B.s.s.C.m.B.a.<.;.m.p.M.p.            ",
"          G.j g k u q w w = q ,.p.p.i.i.z.c.p.t.e.l.B.e.c.z.p.p.B.V.V.C.m.9.q.m <.p.p.M.H.          ",
"          ^ j -.; : t t t ; z 8.p.p.i.e.w.w.t.t.r.r.r.1.O.i.z.i.c.C.V.V.u.9.m 6.0.q.p.i.n.          ",
"          $ -.h = : i : t t c 8.' e.t.' r.t.O.r.! ! ! } { } t.i.B.B.p.p.6.p.q.6.6.q.p.u.5.          ",
"        M.# -.e 7 : t : t ; 6.x ) t.r.i.r.t.! ! ! J J S G } r.i.p.z.y.p.p.u.0.0.9.6.8.B.z.Z.        ",
"        =.k g 7 y : : * t t x s d 5 w.v.c.h. .H +.H H C B D r.h.t.e.e.a n p.q.N 9.;.q.y.z.z.        ",
"        ^ a @ ,.: m y i ; 6 8 p 5 Q O.@.S.g. .H A A A V H D r.l.` } >.s l u m 6.u.,.;.y.s.z.        ",
"        % @ X q b : * = - 6 , 3 2 W O.O.v.x.I L P L Z Z &.| g.h.h.) ' p 8 u u i ;.q.;.<.n.5.        ",
"      H.+ *.- y b = = * 8 > , , 2 4 1 ..+.j.&.Y K K o. .h.&.@.3.r.l.w.x c u r b m q.,.;.p.p.H.      ",
"      N.o -.r i N = * - - > , , 2 1 +. .+.j.b.%.$.$.&.$.+. ...@.t.r.1.e.p._ m N 6.q.0.<.>.p.F.      ",
"      z.+ c -.,.b = : - & 8 , 3 2 W J J I X.&.&.%.%.%.L $.A ] [ r.t.t.7.:.c -.6.m q.,.u.>.n.A.      ",
"      M.# g ;.q.i ; N - & 8 < 5 4 S J ]  .P K %.%.%.#.&.E +.[ r.r.t.l.7.-.6 q n ,.a.<.p.>.B.A.      ",
"      N.j k ;.0.N i * t - 8 f 2 2 S [ H A Z . . #.R #.&.P ] | [ ~ } e.) ) 6 ; m 9.q.0.a.>.n.F.      ",
"      G./ k -.;.N N i ; 6 8 e.' ` ! B C A A Z . . U E P A ] [ @.{ ` ` f s - u m 9.M <.0.-.z.H.      ",
"        ^ c n ;.6.9.6.z 7 _ ' ' ` W S S F V Z I K L L  .] [ | } { w.' s 9 e b m M q.,.;.*.z.        ",
"        # j -.;.m q.6.t t c -.) ` ` S S C C V A P I H ] +.[ | } r.1.7.s l v b M 9.M ;.<.-.p.        ",
"        % $ h m m 6.6.i u c 7.8.' ` W 4 S S C C H F ] [ [ [ ~ } O.7.7.-.u q M 9.,.m ;.<./ 5.        ",
"        5.j k <.m 9.9.9.b z -.8.:.1.Q W 1 1 B J ! | l.g.} } ' } t.:.8.>.;.;.9.9.<.m ,.-.=.N.        ",
"          % g k b m 6.0.9.N c s 7.7.w.Q d J d J ! O.t.O.O.w.O.7.7.7.8.8.9.9.q.d.M m ;.*.=.          ",
"          % j k n z N 0.9.b u 0 l ' _ 7.O.Q ! d W ! O.{ w.' ' ' 7.6.6.9.q.q.9.M M m <.*.2.          ",
"          F.j j k b m m q.N i t 0 7.7.' ' ' O.d d ' Q Q ' ' x 7.7.7.6.0.u.9.q.<.,.*.*.2.H.          ",
"            # g g v b n N N n t t 0 N c _ f f f f ) ) x ) x c 7.6.q.0.6.9.9.M <.<.v *.2.            ",
"            H.^ j n v b N 6.N i b N z c s _ 0 s e.e.' x c c c 6.6.8.M M M m ,.>.v k ( H.            ",
"              z.k / h z n 9.m N N N N 7.6.6.-.-.7.8.6.N N c N N N N M m M m m >.h j n.              ",
"                =./ j z m m N N N b b N 8.6.8.8.N 8.0.8.6.0.m m N q.9.m m m v v / 3.                ",
"                  ( j c -.n n b b b N N N 0.0.q.0.8.0.N 8.6.b b M 9.M m w n k j =.                  ",
"                    ( / j z n n v b m N b 9.u.q.q.u.,.q.9.,.m m ,.b 7 k e @ j 1.                    ",
"                      =./ / n k n n m n b m 6.0.0.9.m m m m m a.m v e @ j j 2.                      ",
"                        3.^ p._ k n -.n n m ;.n b m n n n n m v @ e @ h ^ 5.                        ",
"                          A.( ^ k / n n ;.;.-.b n v n n n h @ v v j % =.A.                          ",
"                              z.^ ^ / ( k / h k k n -.k g $ k + j ( n.                              ",
"                                  D.=.^ ^ j j j j j j j % j ^ ( A.                                  ",
"                                        H.M.3.1.1.=.=.5.M.G.                                        ",
"                                                                                                    ",
"                                                                                                    ",
"                                                                                                    "
};
