/* XPM */
static char *pngwing_com__2___1_1647571885[] = {
/* columns rows colors chars-per-pixel */
"50 50 104 2 ",
"   c None",
".  c gray5",
"X  c #131313",
"o  c #1B1717",
"O  c #1B1C1C",
"+  c #2C0402",
"@  c #260907",
"#  c #250E0D",
"$  c #3F0200",
"%  c #330E0C",
"&  c #3D0A08",
"*  c #33100E",
"=  c #211514",
"-  c #231918",
";  c #2B1C1C",
":  c #341513",
">  c #3D1716",
",  c #321817",
"<  c #3A1816",
"1  c #341D1C",
"2  c #35201F",
"3  c #1F2121",
"4  c #232323",
"5  c #2E2424",
"6  c #2B2C2C",
"7  c #322524",
"8  c #3C2423",
"9  c #362E2E",
"0  c #3E2C2B",
"q  c #333333",
"w  c #3B3636",
"e  c #363838",
"r  c #3C3C3C",
"t  c #450301",
"y  c #430906",
"u  c #4B0C09",
"i  c #530400",
"p  c #590400",
"a  c #580804",
"s  c #4F110E",
"d  c #5C110D",
"f  c #4C1210",
"g  c #4E1E1C",
"h  c #551512",
"j  c #531C19",
"k  c #650500",
"l  c #6B0D08",
"z  c #7B0600",
"x  c #720E09",
"c  c #7A0D08",
"v  c #76100B",
"b  c #611916",
"n  c #6A1A16",
"m  c #701713",
"M  c #7C1D18",
"N  c #63211E",
"B  c #6D211D",
"V  c #76211C",
"C  c #4A2E2D",
"Z  c #5A2522",
"A  c #5B2C2A",
"S  c #51302E",
"D  c #433433",
"F  c #483535",
"G  c #4B3D3C",
"H  c #533534",
"J  c #5C3634",
"K  c #5D3C3A",
"L  c #612523",
"P  c #6E2320",
"I  c #722724",
"U  c #673431",
"Y  c #713A38",
"T  c #793B39",
"R  c #444444",
"E  c #4C4342",
"W  c #474848",
"Q  c #4B4B4B",
"!  c #534242",
"~  c #5A4645",
"^  c #4F5050",
"/  c #545353",
"(  c #5B5352",
")  c #5A5A5A",
"_  c #734F4D",
"`  c #6E514F",
"'  c #7F514F",
"]  c #5F6161",
"[  c #646464",
"{  c #676869",
"}  c #6B6B6B",
"|  c #7D6261",
" . c #747474",
".. c gray48",
"X. c #860D06",
"o. c #8C0903",
"O. c #88110C",
"+. c #891A14",
"@. c #B01008",
"#. c #8A2722",
"$. c #8E3F3B",
"%. c #993F3A",
"&. c #815351",
"*. c #A14641",
/* pixels */
"                                                . .                                                 ",
"                                              . X X .                                               ",
"                                              . 4 4 .                                               ",
"                                            X X 6 q o .                                             ",
"                                            X 4 r G 4 X                                             ",
"                                      b       6 W W 4       b                                       ",
"                                    m F 3   = 4 R R 4 =   3 D m                                     ",
"                                  j D q < z X.v h h v X.z < e D j                                   ",
"                                  4 6 > V $.' ' H H ' ' $.V > 6 4                                   ",
"                                  4 r 7 ( ] ) ) R R ) ) ] ( 5 r 4                                   ",
"                                C W Q 6 Q [ ) ) r r ) ) [ Q 6 Q W C                                 ",
"                              t B Q ^ q r ) ) / r R / ) / r q / Q B t                               ",
"                              l J W / e 4 4 r R / Q R r 4 4 e / W J l                               ",
"                              Z W W W 6 o     q ) ) 6     O 6 W Q W Z                               ",
"                              b W W q         6 [ ) 6         q W Q b                               ",
"                              n W r           6 / / 6           r W n                               ",
"                            i Z W q           4 R R 4           q W A i                             ",
"                          & u S W           6 4 W W 3 6           W H u &                           ",
"                        a , s G 6 X         O 4 ) ) 4 O         X 6 G s , a                         ",
"                        d ; h q 4 4         3 q [ [ q 4         4 4 q h ; d                         ",
"                      k g ; f 6 W 6 X       3 R { [ r 4       X 6 W 6 f ; g k                       ",
"                      v 0 - 2 W ) 4         - W { { E -         4 ( W 2 - 0 x                       ",
"                      N 9 O r ] Q q         @ U { { K @         q Q [ r 4 q N                       ",
"                      D 6 6 ) ) Q q         + I { { I +         e W / ) 4 6 D                       ",
"  a                   6 4 R ) Q r           % M [ { V %           r Q ) R 4 6                   a   ",
"    c                 o 6 Q Q W O         3 % V [ [ V % O         O W W W 6 o                 c     ",
"    +.! 4             X q W W 6 X         4 % P [ [ I % 4         X 6 Q W q X             4 ! +.    ",
"    O._ W O X X X X   6 W W W 4           o @ Z [ [ L @ o           4 W W W 6   X X X X O W _ O.    ",
"      ` [ W 4 O O 3 O e / Q W 3           : h 8 ) ) 2 j :           - R Q ^ r O 4 O O 4 W { `       ",
"      / } } Q 6 o X 6 ^ ] Q R o         = R ' h 6 9 h ' R -         O R ^ ] ^ 6 X o 6 Q } } ^       ",
"      r }  .} ^ O 3 Q W Q e O X         w U | T * * T | U w         X O w Q W W 3 3 Q } ..{ r       ",
"    A Q / .. .[ q 9 / ) r 4   X         Z M %.) 7 7 ( %.M Z         X   4 r ) / q q [  .../ Q A     ",
"    d ~ W [ )  .r W / 6 q q             0 ~ *.^ 9 6 / *.~ 0             q 6 6 / W r  .) [ W ~ d     ",
"      A r 4 ) } q W 6 e R             # 6 ! Y W q e W Y E 6 #             R r 6 W q [ ) 4 r A       ",
"      h q 6 [  .q q R / q             < q R / e e e q ^ R 9 1             q / W q q } [ 9 q h       ",
"      t K ) e / ( R [ W 6 o           7 q r / 6 e e 6 ( r q 8           X 6 W [ r ) / e ] K t       ",
"      t S Q Q Q R R ) R 4 X           7 q r W 6 q q 6 W r q 7           X 4 R ( R R Q Q W S $       ",
"        8 q Q / W 4 r R O .           ; 4 3 6 6 q q 6 q 3 4 ;           X O R r 4 W ) Q e 8         ",
"        5 q e 4 / R w q X X             O X 3 4 w e 4 O X O             X X e e R / 4 e q 5         ",
"        O 4 6 4 [ [ e   X               o X O 4 r r 4 o X o               X   e [ [ 4 9 O O         ",
"          O 6 4 ( #.    X                 X o 4 e r 4 o X                 X     #.( 4 4 o           ",
"          o 4 4 D @.    X                 X X 3 r r 3 X X                 X     @.D 4 6 o           ",
"            4 4 1 o.                          o q q o                           o.1 4 4             ",
"              4 4 y                                                             y 4 4               ",
"                    +                                                         +                     ",
"                                                                                                    ",
"                                                                                                    ",
"                                                                                                    ",
"                                                                                                    ",
"                                                                                                    "
};
