/* XPM */
static char *star__1___1_1647568196[] = {
/* columns rows colors chars-per-pixel */
"50 50 55 1 ",
"  c None",
". c #7C7FEF",
"X c #787BF0",
"o c #7F86F1",
"O c #8081E9",
"+ c #878BEC",
"@ c #9296ED",
"# c #9C9FEF",
"$ c #8389F1",
"% c #8C94F4",
"& c #9298F4",
"* c #9395FF",
"= c #969BFF",
"- c #9A9EFF",
"; c #9CA4F6",
": c #9DA2FF",
"> c #ADA7EF",
", c #A7A4F5",
"< c #A5AAF1",
"1 c #A5ABFF",
"2 c #A9ACFF",
"3 c #B1AFF6",
"4 c #AEB4F6",
"5 c #ACB3FC",
"6 c #B1B1F7",
"7 c #BDBBF6",
"8 c #B4B4FF",
"9 c #B8B7FF",
"0 c #B5BBFE",
"q c #BBBCFC",
"w c #C3BDFA",
"e c #BDC3FE",
"r c #C5C1F7",
"t c #C4C4FD",
"y c #CAC3F8",
"u c #C6CBFF",
"i c #CBCBFD",
"p c #D3CDFC",
"a c #CDD1FF",
"s c #D4D4FE",
"d c #DBD5FD",
"f c #D5D9FF",
"g c #DCDCFE",
"h c #E2DCFF",
"j c #DEE1FF",
"k c #E4E3FF",
"l c #E9E5FF",
"z c #E6E9FF",
"x c #ECEBFF",
"c c #F2ECFF",
"v c #EEF1FF",
"b c #F3F4FF",
"n c #FAF4FF",
"m c #F5F9FF",
"M c #FAFDFF",
/* pixels */
"                                                  ",
"                                                  ",
"                                                  ",
"                                                  ",
"                                                  ",
"                                                  ",
"                                                  ",
"                                                  ",
"                         :                        ",
"                         2                        ",
"                         8                        ",
"                         0                        ",
"                         t           =            ",
"             -       i  su          :             ",
"              19     s  gs         2              ",
"               5t    hh kf   h   u0               ",
"                ei    k lj   h  se                ",
"                 ug   lczl  x  has                ",
"                 hfj  cxbznnc lfh                 ",
"                  kjznnbbbnnmzjl                  ",
"                h  xzbnmmbmnbzx  hh               ",
"                 klccbmmbmmmbbccl                 ",
"                  cxbbvmMmMbbnnc                  ",
"                   nbbmMMMMmmmn                   ",
"        *-120euifglzvvmMMMMMbbxzkgsit0821=        ",
"           8wtisgkzxvbmmMMMmbbbzkgssut9           ",
"                   cbvvmMmmmbcc                   ",
"                  lxxxvbmmbvvcxc                  ",
"                 ghlkzxxbvvxzllkh                 ",
"                p  ggkxxzzzcxjj  dp               ",
"                  ssglkcllklckss                  ",
"                 ius hl jgkg  gii                 ",
"                70i  d  gshd   pqe                ",
"               65w  p   pi ps    46               ",
"               ;    r   ir  y     ;,              ",
"              %         re  7      &              ",
"             $          74          $             ",
"            X            <   >       o            ",
"                         #                        ",
"                         @                        ",
"                         +                        ",
"                         O                        ",
"                                                  ",
"                                                  ",
"                                                  ",
"                                                  ",
"                                                  ",
"                                                  ",
"                                                  ",
"                                                  "
};
