/* XPM */
static char *b81e8283dbec44628d1c6e2035e70d00fUe6n4DtzAeGVtdg[] = {
/* columns rows colors chars-per-pixel */
"50 50 199 2 ",
"   c #010102",
".  c #03040B",
"X  c #09060C",
"o  c #05090D",
"O  c #090A0E",
"+  c #060807",
"@  c #050611",
"#  c #090712",
"$  c #060913",
"%  c #0A0C14",
"&  c #0B0E19",
"*  c #110F1B",
"=  c #110E17",
"-  c #0E1117",
";  c #0E121C",
":  c #12141D",
">  c #16191F",
",  c #0F1323",
"<  c #131522",
"1  c #151924",
"2  c #191C25",
"3  c #151B2B",
"4  c #1A1E2B",
"5  c #161627",
"6  c #191F32",
"7  c #1D212D",
"8  c #1D2333",
"9  c #1F253A",
"0  c #212533",
"q  c #232935",
"w  c #22263A",
"e  c #252B3C",
"r  c #292D3C",
"t  c #282C37",
"y  c #2C313E",
"u  c #262D43",
"i  c #2A2F42",
"p  c #2C3244",
"a  c #2D344A",
"s  c #2E394D",
"d  c #303443",
"f  c #323946",
"g  c #31364B",
"h  c #333A4C",
"j  c #2F3A52",
"k  c #2F3652",
"l  c #343C53",
"z  c #383F54",
"x  c #343E59",
"c  c #383F59",
"v  c #3A4155",
"b  c #36415B",
"n  c #3C435B",
"m  c #3D485E",
"M  c #364460",
"N  c #3C4561",
"B  c #3D4963",
"V  c #41455E",
"C  c #424A5F",
"Z  c #414663",
"A  c #444C64",
"S  c #444D6A",
"D  c #484F6A",
"F  c #485066",
"G  c #45516C",
"H  c #4B536D",
"J  c #4A556B",
"K  c #585B6B",
"L  c #465372",
"P  c #4B5574",
"I  c #4E5975",
"U  c #4D5A7A",
"Y  c #515A76",
"T  c #535D7B",
"R  c #595F7F",
"E  c #625F66",
"W  c #55617D",
"Q  c #5A637D",
"!  c #616573",
"~  c #616B7F",
"^  c #6C6C7D",
"/  c #6C6876",
"(  c #756F76",
")  c #6C7079",
"_  c #7B7577",
"`  c #75747C",
"'  c #7D777B",
"]  c #6C686A",
"[  c #877D7B",
"{  c #515E81",
"}  c #566382",
"|  c #5A6584",
" . c #5C6986",
".. c #5A6789",
"X. c #5D6A8A",
"o. c #5D6D91",
"O. c #5F759A",
"+. c #616684",
"@. c #636A84",
"#. c #626D8C",
"$. c #686C88",
"%. c #6B7182",
"&. c #64728E",
"*. c #6A738D",
"=. c #71718B",
"-. c #767C8A",
";. c #626F91",
":. c #657293",
">. c #6B7593",
",. c #6E7993",
"<. c #667598",
"1. c #6A7699",
"2. c #67799E",
"3. c #6D7B9C",
"4. c #727C95",
"5. c #727D9C",
"6. c #717797",
"7. c #6C7EA4",
"8. c #677BA0",
"9. c #727FA2",
"0. c #847E80",
"q. c #7E8285",
"w. c #77819D",
"e. c #74819C",
"r. c #7A849C",
"t. c #768193",
"y. c #6E81A6",
"u. c #6E85AF",
"i. c #7583A4",
"p. c #7A84A3",
"a. c #7C89A5",
"s. c #7785A9",
"d. c #7B86AA",
"f. c #7C8BAB",
"g. c #768CB3",
"h. c #7C8CB2",
"j. c #7F98C0",
"k. c #8B8589",
"l. c #958984",
"z. c #9B918F",
"x. c #878C97",
"c. c #84919A",
"v. c #999599",
"b. c #A99E97",
"n. c #B3A69E",
"m. c #828DAC",
"M. c #8089A6",
"N. c #8492AE",
"B. c #8C98AA",
"V. c #828EB1",
"C. c #8492B3",
"Z. c #8A95B5",
"A. c #8A99B6",
"S. c #8B97BC",
"D. c #8D9BBA",
"F. c #8795B8",
"G. c #959EB9",
"H. c #9AA3B1",
"J. c #95A2BE",
"K. c #99A4BB",
"L. c #93A2B5",
"P. c #B9ABA4",
"I. c #AEABB2",
"U. c #ACB1B7",
"Y. c #BBB2B3",
"T. c #C7BAB3",
"R. c #C5C2BD",
"E. c #DBC8B9",
"W. c #8B9DC2",
"Q. c #909FC0",
"!. c #8BA2C8",
"~. c #94A3C3",
"^. c #99A6C7",
"/. c #9BA9C4",
"(. c #9AA7CA",
"). c #9CAACB",
"_. c #95A2CB",
"`. c #9FB0CE",
"'. c #97AAD3",
"]. c #9AB1D7",
"[. c #A1ACC0",
"{. c #A5B2CA",
"}. c #A7B4C8",
"|. c #A2AED3",
" X c #A9B6D8",
".X c #B5BBCE",
"XX c #BEC0CD",
"oX c #B8C2D6",
"OX c #D7CBC5",
"+X c #D4D3DB",
"@X c #CAC6C5",
"#X c #E4D4CB",
"$X c #EADDD9",
"%X c #F0DED0",
"&X c #F9E7D9",
"*X c #F9E7D9",
"=X c #C9CEE1",
"-X c #D2D8E7",
";X c #FFF0E1",
/* pixels */
"                                                                          X                         ",
"                                                                                                    ",
"                            + +                                     .                               ",
"                                  .                 .   .                                           ",
"                                  .   .   . + + . + . o .   .                                       ",
"                            . . . . o @ @ $ $ $ $ & & $ @ @ @ . .             +                     ",
"                      . . @ # % ; ; , 1 1 2 7 7 2 7 2 1 , ; & & $ . .                               ",
"                    . . $ % : < 4 6 7 8 w e e r r 9 q 8 8 7 3 1 - $ @ . .                           ",
"                . . . @ * 5 4 3 e e i p a a f h v v f p p i e q 7 : ; - $ +   .                     ",
"                  @ & , 4 6 0 w p p p p a a h h f s v v v l l v y 0 7 1 ; $ o . .                   ",
"            . . @ & , 7 6 w u a j b n A F J H Y J A n b m m n v v f q 4 1 1 ; $ # X X               ",
"            . @ , , 3 8 w a c D P W #.4.r.r.e.,.e.*.Q I S B M b n v h w 8 8 7 & % # #   X   .       ",
"      +     @ $ , 3 6 u x D +.+.e.r.a.m.N.a.r.p.a.N.m.w.@.Y G G A D A l a i w 4 < * $ # X X         ",
"+         X # & , 6 a Z R :.6.9.a.p.w.5.3.1.,.,.5.5.w.C.A.a. .L D D F V g i i t 4 2 * % = # X       ",
"  + +   . @ * 5 w h H +.6.6.5.6.>.:. . . ...X.;.&. . .5.Z.D.p. .T I D A V g i i t 7 5 5 = = % O     ",
"    +   . # < 6 c H $.6.6.#.;.;.X. .X.X.X.X..... .;.<.<.>.9.C.G.$.R Y P D c g g i w 4 5 5 : = %     ",
".   . @ $ , 9 p A &.p.3.| | | { Y Y { +.&.O.2.y.2.2.O.W ..e.f.N./.e.W I J B B j a u 8 3 4 7 3 ; .   ",
"    . @ & 3 u v &.&.:.;.| { Y I R +.#.>.y.s.y.O.g.g.h.h.y.X.5.A.L.f.&.W U U B b j a 9 3 3 4 1 ; +   ",
".   o $ , 9 v J e.&...{ T P U { #. .#.<.y.f.g.f.h.f.f.f.i.<.<.e.N.A.a.W B } U b j s u 9 4 4 2 1 #   ",
"  . @ & 3 e m W $. .{ U L U X.1.s.2.7.S.~.J.J.`././.D.f.a.f.i.<.a.A.N.&.W  .W b x j a 9 8 8 7 7 % . ",
"    @ , 7 p F Q W W W U P ..>.3.7.g.!.`.`.J.B.B.B.[.}.[.D.C.s.<.e.N.A.i.| { { D x x a i e 0 0 q -   ",
".   # < 8 f F W W W T L } 3.9.:.u.!.'.h.e.t.-.! ` -.H.oXoX).f.3.3.a.A.a.+.R +.Y N k a p i u q q > + ",
".   # 5 t v J U T T U U ..3.5.7.'.].W.y.~ ) ` _ 0.k.I.-X-XoXA.i.&.a.D.a.#...{ Y N x g g g r q 7 > . ",
"  . # 2 y v A J J L U { | X.p.F.].j.u.3.) ! ] l.P.OX$X+X.XL.r.>.&.N.~.m.:.:.:.R Z c k h g i w 7 1 . ",
"  X = 4 y v A F L L B } y.3.5.~.'.g.e.t.E [ l.P.&X&X$XT.x.%.=.9.#.V.(.C.;.#.:.Y Z V c c z r 8 t 2   ",
"  . = 4 d z A A G L U } &.&.a. X!.s.e.) E [ b.E.&X&X#XP.0.%.@.$.:.S.[.d.#.;.;.P Z Z c l h r 0 y 1 + ",
". . * 7 y v C A G B P ....X.N. XC.i.-.K ] z.R.*X&X*XT.l.( ^ =.=.6.Q.Q.7.;.<.+.L Z Z c l h e 0 p >   ",
"  X * 7 d v V N G M L X. .X.f.(.h.e.t.Q v.Y.OX*X#XT.z._ / ^ =.6.Z.(.Z.;.;.<.{ S S D Z c g w 8 r 2   ",
"  X * 4 y z v n B M L ..+.#.M.^.C.p.M.r.XX+X@XR.b.k._ %.=.$.=.9.|.Q.9.;.1...{ D S P Z c a 6 6 0 1   ",
"  . % 2 r f l x b M U ..{ R 9. XD.d.Z.G.=X+XU.v.q.) ! %.=.6.V.(._.V.:.;.;.{ L P P P Z l i 6 5 6 >   ",
".   $ 5 q p h j j M L U { U 1.|.Q.m.m.G.}.oXH.B.c.c.r.r.V.W.|.|.W.6.<.;...{ { P T Y Z g u 6 5 4 >   ",
"  . o : 7 y a s x M M S } T ..W.|.d.9.C.a.K.K.[.G.{.{.|.'.|._.g.9.<.6.6...{ +.Y T Y c u w 6 3 6 >   ",
"    . - 2 t f v v v b m L W o.O.^.D.h.i.i.N.A.A.A.D.D.D.W.h.9.1.9.9.6...W W Q | Q J v e 8 7 w y % + ",
"    + O > q y f y v b b L  . .} f.^.).f.1.e.N.h.f.f.g.f.h.7.7.1.......{  .*.*.*.~ F p w e p e 7 O + ",
"      o - 7 q y y b b b B  .X.W X.A.).A.e.e.s.i.f.i.e.3.2.2.o.o.+.{ { +.*.e.t.4.K v w w d p 7 % .   ",
"      + - > 8 q y p u b B U } W } <.m.D.D.h.i.i.f.i.y.2.o.o.o.o.<.;.:.9.a.r.*.Q h f a y r 7 -       ",
"      + o - 1 7 e 9 e b b b I  .} } >.m.G.G.Z.Z.d.f.M.9.9.9.6.0.6.9.m.Z.m.6.H v a f f y 2 $ o +     ",
"        . o - , q 7 9 s v b B ~ Y | #.>.5.m.Z.S.m.C.Z.Z.Z.S.W.W.W.0.M.9.@.F a w f y 7 1 % + .       ",
"    + + + . $ - 3 3 8 r u p v A A Y +.| +.#.6.9.p.m.V.V.V.0.g.9.9.<.{ D c i u e q 7 - . + +         ",
"        + + o $ & 1 7 8 e p p f n c D | +.P H +.Q +.>.>.=.;.o...P Z c k h a i p 1 : - % . . +       ",
"          .   . o $ ; 1 8 q r r a a l Z Y Y P D P D D D H D D D b v j v l f r 8 - $ o +             ",
"              . o o % ; 5 4 0 q e u a k V A V n V c V V Z Z Z c v b f p r 8 1 & $ o . +             ",
"                + . . # = : 2 2 0 0 w e d d g d i i a g g g g p u q 9 7 3 ; & . + .                 ",
"                        + O = = 1 4 4 7 7 0 w t i w w r r w w 6 3 1 , ; - - $ . +                   ",
"                          . X O % ; < 1 1 5 4 4 0 7 7 7 4 5 5 , : ; % o . . +   +         +   +     ",
"                    +           . . # - = : % & * * * * , & & # $ o + +               + +   + +     ",
"                          +       . . . . O X @ # . # # @ $ @ .             + X       +   +         ",
"                                .         . .   . . . X . .       +                     + +   +     ",
"                                                                                                    ",
"                                                                                                    "
};
